<?xml version="1.0" encoding="UTF-8"?>
<svg xmlns="http://www.w3.org/2000/svg" xmlns:xlink="http://www.w3.org/1999/xlink" viewBox="0 0 48 48" width="48px" height="48px">
<g id="surface157263130">
<path style=" stroke:none;fill-rule:nonzero;fill:rgb(23.921569%,85.09804%,92.156863%);fill-opacity:1;" d="M 44 41 L 4 41 L 4 7 L 44 7 L 44 41 "/>
<path style=" stroke:none;fill-rule:nonzero;fill:rgb(42.352942%,9.803922%,100%);fill-opacity:1;" d="M 31.5 11 C 29.566406 11 28 12.566406 28 14.5 C 28 16.433594 29.566406 18 31.5 18 C 33.433594 18 35 16.433594 35 14.5 C 35 12.566406 33.433594 11 31.5 11 Z M 31.5 11 "/>
<path style=" stroke:none;fill-rule:nonzero;fill:rgb(42.352942%,9.803922%,100%);fill-opacity:1;" d="M 20.816406 17.894531 L 4 40.808594 L 4 41 L 37.769531 41 L 20.410156 41 L 38 41 L 20.816406 17.894531 "/>
<path style=" stroke:none;fill-rule:nonzero;fill:rgb(42.352942%,9.803922%,100%);fill-opacity:1;" d="M 31.363281 24.007812 L 19 40.859375 L 19 41 L 43.828125 41 L 31.066406 41 L 44 41 L 31.363281 24.007812 "/>
<path style=" stroke:none;fill-rule:nonzero;fill:rgb(12.941177%,0%,76.862746%);fill-opacity:1;" d="M 38 41 L 28.382812 28.070312 L 19 40.859375 L 19 41 Z M 38 41 "/>
</g>
</svg>
